<mxfile host="app.diagrams.net" modified="2022-05-13T22:25:53.409Z" agent="5.0 (Windows NT 10.0; Win64; x64) AppleWebKit/537.36 (KHTML, like Gecko) Chrome/101.0.4951.54 Safari/537.36 Edg/101.0.1210.39" etag="v7Nch5De_gEO2LBK9C8F" version="18.0.3" type="github">
  <diagram id="4REdETmmqlSfQrvWELkF" name="Page-1">
    <mxGraphModel dx="868" dy="450" grid="1" gridSize="20" guides="1" tooltips="1" connect="1" arrows="1" fold="1" page="1" pageScale="1" pageWidth="850" pageHeight="1100" math="0" shadow="0">
      <root>
        <mxCell id="0" />
        <mxCell id="1" parent="0" />
        <mxCell id="09DOgrn9va6J_pJfdMla-1" value="Build your very first app&lt;br&gt;" style="rounded=1;whiteSpace=wrap;html=1;shadow=1;glass=0;sketch=0;" vertex="1" parent="1">
          <mxGeometry x="310" y="70" width="280" height="110" as="geometry" />
        </mxCell>
      </root>
    </mxGraphModel>
  </diagram>
</mxfile>
